<svg id="Capa_1" enable-background="new 0 0 512 512" height="512" viewBox="0 0 512 512" width="512" xmlns="http://www.w3.org/2000/svg"><g><path d="m395.982 70.544c0-24.513-24.391-44.456-54.372-44.456-8.084 0-15.855 1.406-23.107 4.181-12.357-18.682-36.258-30.269-62.503-30.269s-50.146 11.587-62.504 30.269c-7.251-2.774-15.022-4.181-23.106-4.181-4.687 0-9.341.486-13.835 1.444-4.051.863-6.635 4.848-5.771 8.899s4.852 6.635 8.899 5.771c3.468-.739 7.07-1.114 10.708-1.114 6.372 0 12.458 1.117 18.085 3.321 6.335 2.482 13.633.127 17.355-5.596 9.548-14.688 28.772-23.813 50.169-23.813s40.621 9.125 50.17 23.813c3.721 5.724 11.019 8.079 17.354 5.596 5.629-2.204 11.714-3.321 18.087-3.321 21.709 0 39.372 13.214 39.372 29.456 0 6.651-2.964 12.792-7.952 17.727-7.685 7.604-18.04 11.729-31.42 11.729-11.428 0-22.3-3.76-29.828-10.316-5.084-4.427-12.444-4.839-17.896-1.003-10.371 7.299-23.826 11.319-37.887 11.319-5.042 0-10.049-.52-14.883-1.546-4.277-.907-8.682.154-12.084 2.91-3.418 2.769-5.378 6.88-5.378 11.279v63.958c0 7.599-6.182 13.78-13.78 13.78s-13.78-6.182-13.78-13.78v-63.064c0-4.279-1.876-8.314-5.146-11.069-3.288-2.771-7.611-3.94-11.856-3.206-2.845.489-5.772.738-8.701.738-13.838 0-23.549-3.942-31.417-11.727-4.989-4.936-7.954-11.078-7.954-17.729 0-4.704 1.465-9.209 4.354-13.39 2.355-3.407 1.501-8.079-1.906-10.434s-8.08-1.501-10.434 1.906c-4.588 6.64-7.014 14.219-7.014 21.917 0 9.544 3.71 18.387 9.995 25.639-14.231 50.085-13.069 102.557 3.421 152.037l34.73 104.251c11.109 33.336 10.77 69.936-.956 103.06l-11.967 33.854c-3.9 10.717 4.481 22.706 15.979 22.616h177.56c11.412.079 19.874-11.873 15.981-22.61l-11.971-33.862c-11.725-33.121-12.063-69.721-.954-103.058l10.664-32.01c1.309-3.93-.815-8.177-4.745-9.485-3.935-1.313-8.177.814-9.486 4.745l-10.663 32.009c-12.16 36.488-11.789 76.55 1.044 112.802l11.972 33.865c.452 1.399-.375 2.564-1.841 2.604h-177.564c-1.47-.041-2.293-1.21-1.839-2.61l11.968-33.856c12.834-36.255 13.205-76.316 1.046-112.804l-34.73-104.251c-8.351-25.057-12.521-50.929-12.517-76.828h49.945v9.951c0 15.869 12.911 28.78 28.78 28.78s28.78-12.911 28.78-28.78v-9.951h142.197c.004 25.899-4.166 51.771-12.517 76.829l-12.867 38.624c-1.309 3.93.815 8.177 4.745 9.485 3.832 1.276 8.169-.769 9.486-4.745l12.867-38.623c16.49-49.48 17.652-101.953 3.422-152.038 6.286-7.251 9.996-16.095 9.996-25.639zm-214.888 81.106h-49.483c.945-15.095 3.321-30.147 7.116-45 8.925 5.247 19.856 8.35 31.663 8.35 3.594 0 7.192-.291 10.704-.865zm57.56 0v-38.388c5.653 1.154 11.485 1.738 17.346 1.738 16.966 0 33.341-4.899 46.164-13.804 10.206 8.776 24.564 13.804 39.447 13.804 11.807 0 22.738-3.103 31.662-8.35 3.795 14.854 6.171 29.905 7.116 45z"/></g></svg>