<svg id="Capa_1" enable-background="new 0 0 512 512" height="512" viewBox="0 0 512 512" width="512" xmlns="http://www.w3.org/2000/svg"><g><g><g><path d="m330.892 503.5-30.002 1h-116.913c-6.733 0-11.658-6.345-9.98-12.859l9.731-37.923 61.916-10 84.496 10 9.732 37.923c1.678 6.514-2.247 11.859-8.98 11.859z" fill="#eef5f6"/><path d="m330.33 295.2c-19.86 47.09-24.4 99.24-11.69 148.75l2.51 9.77h-137.43l2.96-11.53c12.51-48.71 8.86-100.23-10.75-146.54-24.07-56.82-23.25-118.74-7.35-183.74h167.71c16.08 66.2 17.27 128.19-5.96 183.29z" fill="#ffe177"/><path d="m337.87 490.64c1.68 6.51-3.25 12.86-9.98 12.86l-17-1c6.73 0 11.66-4.35 9.98-10.86l-19.725-37.921-2.505-9.769c-12.71-49.51-8.17-101.66 11.69-148.75 23.23-55.1 22.04-117.09 5.96-183.29h30c16.08 66.2 17.27 128.19-5.96 183.29-19.86 47.09-24.4 99.24-11.69 148.75l2.505 9.769z" fill="#ffc344"/><path d="m330.89 504.5h-30c6.74 0 11.66-6.35 9.98-12.86l-9.73-37.92h30l9.73 37.92c1.68 6.51-3.24 12.86-9.98 12.86z" fill="#deecf1"/><path d="m368.862 100.062c0 17.143-2.425 34.305-16.175 42.481l-5.773-26.129c0-2.055-1.855-3.647-3.878-3.284-11.408 2.046-12.701 12.988-26.425 12.988-15.151 0-15.151-13.318-30.303-13.318-15.162 0-15.162 13.318-30.313 13.318s-15.151-13.318-30.303-13.318c-15.151 0-15.151 13.318-30.303 13.318h-.024c-1.25-.001-2.273 1.021-2.273 2.271v93.23c0 11.451-9.494 20.678-21.028 20.258-10.979-.399-19.516-9.759-19.516-20.745v-86.422c0-2.46-.711-4.885-2.132-6.893-5.214-7.367-8.277-16.358-8.277-26.059 0-24.149 18.965-43.884 42.82-45.138 1.391-.074 2.56-1.075 2.887-2.434 1.791-7.418 9.883-29.702 42.335-28.849 3.993.105 7.85.422 11.527 1.307 1.254.306 2.571-.169 3.308-1.222 4.741-6.77 11.425-12.078 19.247-15.108 4.693-1.818 9.795-1.815 15.133-1.815 23.17 0 40.945 17.765 40.945 40.914 0 .695-.019 1.387-.055 2.076-.048.922 1.695 2.676 2.618 2.675h.017c25.931.001 45.941 20 45.941 45.898z" fill="#eef5f6"/><path d="m369.86 100.06c0 17.14-3.42 34.31-17.17 42.48l-5.78-26.13c0-2.05-1.85-3.64-3.87-3.28-1.56.28-2.93.73-4.17 1.3.71-4.66.99-9.51.99-14.37 0-25.9-21.01-46.9-46.94-46.9 0 0-.01 0-.02 0-.92.01-1.66-.75-1.61-1.67.03-.69.05-1.38.05-2.08 0-17.86-11.19-33.12-26.95-39.15 4.66-1.78 9.72-2.76 15.01-2.76 23.17 0 41.94 18.77 41.94 41.91 0 .7-.02 1.39-.05 2.08-.05.92.69 1.68 1.61 1.67h.02c25.93 0 46.94 21 46.94 46.9z" fill="#deecf1"/></g></g><g><path d="m357.449 222.931c-4.113-.431-7.807 2.562-8.237 6.682-2.365 22.697-7.856 44.198-16.32 63.906-20.425 47.56-24.517 101.645-11.52 152.292l.104.407h-14.044c-4.143 0-7.5 3.358-7.5 7.5s3.357 7.5 7.5 7.5h17.893l8.284 32.282c.297 1.157-.186 2.01-.5 2.415-.315.405-1.021 1.085-2.215 1.085h-146.917c-1.195 0-1.901-.68-2.216-1.085-.314-.405-.797-1.257-.5-2.415l8.284-32.282h85.195c4.143 0 7.5-3.358 7.5-7.5s-3.357-7.5-7.5-7.5h-81.346l.555-2.162c8.156-31.781 9.696-64.25 4.578-96.505-.649-4.091-4.486-6.885-8.583-6.232-4.091.649-6.881 4.492-6.231 8.583 4.795 30.218 3.351 60.642-4.293 90.426l-12.689 49.444c-1.378 5.368-.22 10.958 3.178 15.337 3.397 4.379 8.524 6.891 14.067 6.891h146.918c5.542 0 10.669-2.512 14.066-6.891s4.556-9.97 3.178-15.338l-12.237-47.689c-12.178-47.455-8.352-98.113 10.773-142.645 9.061-21.099 14.934-44.068 17.457-68.27.429-4.119-2.562-7.807-6.682-8.236z"/><path d="m377.361 100.062c0-28.03-21.325-51.177-48.638-54.088-1.772-25.649-23.219-45.974-49.326-45.974-15.131 0-29.412 6.962-38.768 18.764-2.986-.526-6.264-.818-10.251-.923-34.395-.913-45.594 21.04-48.967 31.55-26.473 2.969-46.772 25.39-46.772 52.369 0 10.957 3.339 21.466 9.654 30.39.487.689.756 1.598.756 2.561v86.423c0 7.612 2.913 14.508 7.688 19.583 3.078 20.14 8.547 39.593 16.283 57.858 2.846 6.718 5.385 13.664 7.547 20.643.996 3.218 3.961 5.283 7.162 5.283.734 0 1.482-.109 2.221-.338 3.957-1.225 6.171-5.426 4.945-9.383-2.309-7.458-5.022-14.878-8.063-22.056-5.869-13.855-10.344-28.452-13.372-43.54.768.093 1.544.161 2.332.19.349.013.697.019 1.044.019 7.229 0 14.034-2.741 19.261-7.78 5.479-5.283 8.496-12.383 8.496-19.992v-88.45c7.183-1.294 11.548-5.131 14.899-8.078 3.4-2.988 5.452-4.792 10.2-4.792s6.8 1.804 10.2 4.792c4.093 3.598 9.699 8.526 20.103 8.526 10.401 0 16.008-4.926 20.102-8.524 3.402-2.99 5.456-4.794 10.211-4.794 4.748 0 6.8 1.804 10.2 4.792 4.093 3.598 9.699 8.526 20.103 8.526 10.395 0 16.002-4.925 20.096-8.522 1.471-1.293 2.632-2.29 3.774-3.033l4.845 21.928c3.234 18.757 5.002 36.873 5.25 53.844.06 4.105 3.405 7.39 7.497 7.39.037 0 .074-.001.111-.001 4.142-.061 7.45-3.467 7.39-7.609-.239-16.376-1.839-33.736-4.727-51.657 11.091-8.93 16.514-24.002 16.514-45.897zm-35.649 5.686c-7.173 1.287-11.461 5.053-14.906 8.08-3.4 2.987-5.453 4.791-10.195 4.791-4.748 0-6.8-1.804-10.2-4.792-4.093-3.598-9.699-8.526-20.103-8.526-10.409 0-16.018 4.928-20.112 8.526-3.4 2.988-5.453 4.792-10.2 4.792-4.748 0-6.8-1.804-10.2-4.792-4.093-3.598-9.699-8.526-20.103-8.526s-16.01 4.928-20.103 8.526c-3.4 2.988-5.452 4.792-10.222 4.792-.001 0-.003 0-.004 0-2.607 0-5.06 1.017-6.906 2.862-1.848 1.847-2.865 4.301-2.865 6.909v93.23c0 3.499-1.388 6.764-3.908 9.194-2.52 2.429-5.843 3.688-9.348 3.569-6.775-.247-12.288-6.19-12.288-13.25v-86.423c0-4.098-1.214-7.979-3.511-11.226-4.514-6.377-6.899-13.89-6.899-21.726 0-20.059 15.688-36.596 35.716-37.648 4.662-.247 8.685-3.607 9.781-8.164 4.959-20.535 24.17-23.129 33.533-23.129.463 0 .902.006 1.314.017 4.19.11 7.266.45 9.948 1.096 4.302 1.05 8.709-.604 11.229-4.207 6.456-9.219 17.013-14.723 28.237-14.723 18.993 0 34.445 15.438 34.445 34.414 0 .567-.017 1.132-.045 1.688-.128 2.477.778 4.929 2.486 6.726 1.714 1.803 4.126 2.837 6.629 2.837h.01c21.747 0 39.439 17.674 39.439 39.397 0 11.876-1.756 20.949-5.329 27.388l-2.669-12.081c-.272-2.824-1.637-5.432-3.839-7.274-2.458-2.055-5.666-2.912-8.812-2.347z"/></g></g></svg>