<?xml version="1.0" encoding="utf-8"?>
<!-- Generator: Adobe Illustrator 25.2.3, SVG Export Plug-In . SVG Version: 6.00 Build 0)  -->
<svg version="1.1" id="Capa_1" xmlns="http://www.w3.org/2000/svg" xmlns:xlink="http://www.w3.org/1999/xlink" x="0px" y="0px"
	 viewBox="0 0 512 512" style="enable-background:new 0 0 512 512;" xml:space="preserve">
<style type="text/css">
	.st0{fill:#FFFFFF;}
</style>
<g>
	<g>
		<g>
			<path class="st0" d="M330.9,503.5l-30,1H184c-6.7,0-11.7-6.3-10-12.9l9.7-37.9l61.9-10l84.5,10l9.7,37.9
				C341.6,498.2,337.6,503.5,330.9,503.5z"/>
			<path class="st0" d="M330.3,295.2c-19.9,47.1-24.4,99.2-11.7,148.8l2.5,9.8H183.7l3-11.5c12.5-48.7,8.9-100.2-10.8-146.5
				c-24.1-56.8-23.2-118.7-7.4-183.7h167.7C352.4,178.1,353.6,240.1,330.3,295.2L330.3,295.2z"/>
			<path class="st0" d="M337.9,490.6c1.7,6.5-3.2,12.9-10,12.9l-17-1c6.7,0,11.7-4.4,10-10.9l-19.7-37.9l-2.5-9.8
				c-12.7-49.5-8.2-101.7,11.7-148.8c23.2-55.1,22-117.1,6-183.3h30c16.1,66.2,17.3,128.2-6,183.3c-19.9,47.1-24.4,99.2-11.7,148.8
				l2.5,9.8L337.9,490.6z"/>
			<path class="st0" d="M330.9,504.5h-30c6.7,0,11.7-6.4,10-12.9l-9.7-37.9h30l9.7,37.9C342.6,498.2,337.6,504.5,330.9,504.5z"/>
			<path class="st0" d="M368.9,100.1c0,17.1-2.4,34.3-16.2,42.5l-5.8-26.1c0-2.1-1.9-3.6-3.9-3.3c-11.4,2-12.7,13-26.4,13
				c-15.2,0-15.2-13.3-30.3-13.3c-15.2,0-15.2,13.3-30.3,13.3s-15.2-13.3-30.3-13.3c-15.2,0-15.2,13.3-30.3,13.3h0
				c-1.2,0-2.3,1-2.3,2.3v93.2c0,11.5-9.5,20.7-21,20.3c-11-0.4-19.5-9.8-19.5-20.7v-86.4c0-2.5-0.7-4.9-2.1-6.9
				c-5.2-7.4-8.3-16.4-8.3-26.1c0-24.1,19-43.9,42.8-45.1c1.4-0.1,2.6-1.1,2.9-2.4c1.8-7.4,9.9-29.7,42.3-28.8
				c4,0.1,7.9,0.4,11.5,1.3c1.3,0.3,2.6-0.2,3.3-1.2c4.7-6.8,11.4-12.1,19.2-15.1c4.7-1.8,9.8-1.8,15.1-1.8
				c23.2,0,40.9,17.8,40.9,40.9c0,0.7,0,1.4-0.1,2.1c0,0.9,1.7,2.7,2.6,2.7h0C348.9,54.2,368.9,74.2,368.9,100.1L368.9,100.1z"/>
			<path class="st0" d="M369.9,100.1c0,17.1-3.4,34.3-17.2,42.5l-5.8-26.1c0-2.1-1.9-3.6-3.9-3.3c-1.6,0.3-2.9,0.7-4.2,1.3
				c0.7-4.7,1-9.5,1-14.4c0-25.9-21-46.9-46.9-46.9c0,0,0,0,0,0c-0.9,0-1.7-0.8-1.6-1.7c0-0.7,0-1.4,0-2.1c0-17.9-11.2-33.1-27-39.2
				c4.7-1.8,9.7-2.8,15-2.8c23.2,0,41.9,18.8,41.9,41.9c0,0.7,0,1.4,0,2.1c0,0.9,0.7,1.7,1.6,1.7h0
				C348.8,53.2,369.9,74.2,369.9,100.1L369.9,100.1z"/>
		</g>
	</g>
	<g>
		<path d="M357.4,222.9c-4.1-0.4-7.8,2.6-8.2,6.7c-2.4,22.7-7.9,44.2-16.3,63.9c-20.4,47.6-24.5,101.6-11.5,152.3l0.1,0.4h-14
			c-4.1,0-7.5,3.4-7.5,7.5s3.4,7.5,7.5,7.5h17.9l8.3,32.3c0.3,1.2-0.2,2-0.5,2.4c-0.3,0.4-1,1.1-2.2,1.1H184c-1.2,0-1.9-0.7-2.2-1.1
			c-0.3-0.4-0.8-1.3-0.5-2.4l8.3-32.3h85.2c4.1,0,7.5-3.4,7.5-7.5s-3.4-7.5-7.5-7.5h-81.3l0.6-2.2c8.2-31.8,9.7-64.2,4.6-96.5
			c-0.6-4.1-4.5-6.9-8.6-6.2c-4.1,0.6-6.9,4.5-6.2,8.6c4.8,30.2,3.4,60.6-4.3,90.4l-12.7,49.4c-1.4,5.4-0.2,11,3.2,15.3
			c3.4,4.4,8.5,6.9,14.1,6.9h146.9c5.5,0,10.7-2.5,14.1-6.9s4.6-10,3.2-15.3l-12.2-47.7c-12.2-47.5-8.4-98.1,10.8-142.6
			c9.1-21.1,14.9-44.1,17.5-68.3C364.6,227,361.6,223.4,357.4,222.9L357.4,222.9z"/>
		<path d="M377.4,100.1c0-28-21.3-51.2-48.6-54.1C327,20.3,305.5,0,279.4,0c-15.1,0-29.4,7-38.8,18.8c-3-0.5-6.3-0.8-10.3-0.9
			c-34.4-0.9-45.6,21-49,31.5c-26.5,3-46.8,25.4-46.8,52.4c0,11,3.3,21.5,9.7,30.4c0.5,0.7,0.8,1.6,0.8,2.6v86.4
			c0,7.6,2.9,14.5,7.7,19.6c3.1,20.1,8.5,39.6,16.3,57.9c2.8,6.7,5.4,13.7,7.5,20.6c1,3.2,4,5.3,7.2,5.3c0.7,0,1.5-0.1,2.2-0.3
			c4-1.2,6.2-5.4,4.9-9.4c-2.3-7.5-5-14.9-8.1-22.1c-5.9-13.9-10.3-28.5-13.4-43.5c0.8,0.1,1.5,0.2,2.3,0.2c0.3,0,0.7,0,1,0
			c7.2,0,14-2.7,19.3-7.8c5.5-5.3,8.5-12.4,8.5-20v-88.4c7.2-1.3,11.5-5.1,14.9-8.1c3.4-3,5.5-4.8,10.2-4.8s6.8,1.8,10.2,4.8
			c4.1,3.6,9.7,8.5,20.1,8.5c10.4,0,16-4.9,20.1-8.5c3.4-3,5.5-4.8,10.2-4.8c4.7,0,6.8,1.8,10.2,4.8c4.1,3.6,9.7,8.5,20.1,8.5
			c10.4,0,16-4.9,20.1-8.5c1.5-1.3,2.6-2.3,3.8-3l4.8,21.9c3.2,18.8,5,36.9,5.2,53.8c0.1,4.1,3.4,7.4,7.5,7.4c0,0,0.1,0,0.1,0
			c4.1-0.1,7.5-3.5,7.4-7.6c-0.2-16.4-1.8-33.7-4.7-51.7C371.9,137,377.4,122,377.4,100.1L377.4,100.1z M341.7,105.7
			c-7.2,1.3-11.5,5.1-14.9,8.1c-3.4,3-5.5,4.8-10.2,4.8c-4.7,0-6.8-1.8-10.2-4.8c-4.1-3.6-9.7-8.5-20.1-8.5c-10.4,0-16,4.9-20.1,8.5
			c-3.4,3-5.5,4.8-10.2,4.8c-4.7,0-6.8-1.8-10.2-4.8c-4.1-3.6-9.7-8.5-20.1-8.5s-16,4.9-20.1,8.5c-3.4,3-5.5,4.8-10.2,4.8
			c0,0,0,0,0,0c-2.6,0-5.1,1-6.9,2.9c-1.8,1.8-2.9,4.3-2.9,6.9v93.2c0,3.5-1.4,6.8-3.9,9.2c-2.5,2.4-5.8,3.7-9.3,3.6
			c-6.8-0.2-12.3-6.2-12.3-13.2v-86.4c0-4.1-1.2-8-3.5-11.2c-4.5-6.4-6.9-13.9-6.9-21.7c0-20.1,15.7-36.6,35.7-37.6
			c4.7-0.2,8.7-3.6,9.8-8.2c5-20.5,24.2-23.1,33.5-23.1c0.5,0,0.9,0,1.3,0c4.2,0.1,7.3,0.5,9.9,1.1c4.3,1,8.7-0.6,11.2-4.2
			c6.5-9.2,17-14.7,28.2-14.7c19,0,34.4,15.4,34.4,34.4c0,0.6,0,1.1,0,1.7c-0.1,2.5,0.8,4.9,2.5,6.7c1.7,1.8,4.1,2.8,6.6,2.8h0
			c21.7,0,39.4,17.7,39.4,39.4c0,11.9-1.8,20.9-5.3,27.4l-2.7-12.1c-0.3-2.8-1.6-5.4-3.8-7.3C348.1,106,344.9,105.2,341.7,105.7
			L341.7,105.7z"/>
	</g>
</g>
</svg>
